%TF.GenerationSoftware,KiCad,Pcbnew,4.0.7*%
%TF.CreationDate,2018-04-08T16:14:44+02:00*%
%TF.ProjectId,power_board,706F7765725F626F6172642E6B696361,rev?*%
%TF.FileFunction,Copper,L2,Inr,Signal*%
%FSLAX46Y46*%
G04 Gerber Fmt 4.6, Leading zero omitted, Abs format (unit mm)*
G04 Created by KiCad (PCBNEW 4.0.7) date 04/08/18 16:14:44*
%MOMM*%
%LPD*%
G01*
G04 APERTURE LIST*
%ADD10C,0.150000*%
%ADD11C,3.100000*%
%ADD12C,0.500000*%
%ADD13R,2.400000X2.400000*%
%ADD14C,2.400000*%
%ADD15C,5.000000*%
%ADD16R,1.700000X2.000000*%
%ADD17O,1.700000X2.000000*%
%ADD18R,5.000000X5.000000*%
%ADD19C,0.600000*%
%ADD20C,0.254000*%
G04 APERTURE END LIST*
D10*
X104000000Y-119820000D02*
X184000000Y-119820000D01*
X104000000Y-43120000D02*
X184000000Y-43120000D01*
X184000000Y-43120000D02*
X184000000Y-119820000D01*
X104000000Y-43120000D02*
X104000000Y-119820000D01*
D11*
X107560000Y-116000000D03*
X108020000Y-47170000D03*
X179030000Y-113590000D03*
X179660000Y-60110000D03*
D12*
X173420000Y-59410000D03*
X173540000Y-55250000D03*
X112820000Y-46500000D03*
X114550000Y-52670000D03*
X114790000Y-48700000D03*
X153430000Y-109160000D03*
X153480000Y-106960000D03*
X147600000Y-111920000D03*
X147480000Y-110680000D03*
X123460000Y-106440000D03*
X122290000Y-106380000D03*
X123430000Y-104770000D03*
X122230000Y-104840000D03*
X164990000Y-107890000D03*
X163650000Y-107930000D03*
X165100000Y-106080000D03*
X163630000Y-106060000D03*
X159130000Y-107090000D03*
X160070000Y-109200000D03*
X167670000Y-107740000D03*
X170510000Y-106300000D03*
X170350000Y-103920000D03*
X139550000Y-98160000D03*
X135330000Y-98170000D03*
X135450000Y-94470000D03*
X139720000Y-94510000D03*
X116560000Y-103760000D03*
X116640000Y-106430000D03*
X121380000Y-109420000D03*
X119510000Y-109280000D03*
X126540000Y-108930000D03*
X125990000Y-105670000D03*
X127510000Y-104420000D03*
X130430000Y-106270000D03*
X132500000Y-109810000D03*
X132390000Y-107820000D03*
X158760000Y-112160000D03*
X158630000Y-110740000D03*
X169440000Y-112260000D03*
X169430000Y-110780000D03*
X176170000Y-89350000D03*
D13*
X157330000Y-52470000D03*
D14*
X157330000Y-47470000D03*
D13*
X141510000Y-63390000D03*
D14*
X146510000Y-63390000D03*
D13*
X170210000Y-85050000D03*
D14*
X170210000Y-80050000D03*
D13*
X156750000Y-85140000D03*
D14*
X156750000Y-80140000D03*
D13*
X141660000Y-76610000D03*
D14*
X146660000Y-76610000D03*
D13*
X144110000Y-52530000D03*
D14*
X144110000Y-47530000D03*
D13*
X130900000Y-52340000D03*
D14*
X130900000Y-47340000D03*
D13*
X117960000Y-81320000D03*
D14*
X117960000Y-86320000D03*
D13*
X131630000Y-81170000D03*
D14*
X131630000Y-86170000D03*
D15*
X171830000Y-67340000D03*
X160450000Y-67360000D03*
X154630000Y-67400000D03*
X160430000Y-73080000D03*
X165960000Y-73140000D03*
X171600000Y-73110000D03*
X166090000Y-67390000D03*
X154630000Y-73100000D03*
D16*
X126830000Y-112100000D03*
D17*
X124330000Y-112100000D03*
D16*
X117030000Y-112060000D03*
D17*
X114530000Y-112060000D03*
D16*
X136990000Y-111960000D03*
D17*
X134490000Y-111960000D03*
D18*
X123150000Y-67882000D03*
X128668172Y-73835894D03*
X128656761Y-67877405D03*
X117636267Y-67865561D03*
X123175525Y-73834743D03*
X134156761Y-67887405D03*
X134168172Y-73845894D03*
X117675525Y-73844743D03*
X144480000Y-103670000D03*
D15*
X144600000Y-97070000D03*
D18*
X134160000Y-62420000D03*
D15*
X154510000Y-61740000D03*
D19*
X122610000Y-100000000D03*
X160670000Y-91950000D03*
X176100000Y-102430000D03*
X174860000Y-102430000D03*
X155310000Y-105580000D03*
X118970000Y-103270000D03*
X125930000Y-90080000D03*
X162090000Y-102860000D03*
X168970000Y-58670000D03*
X166200000Y-57740000D03*
X120410000Y-50410000D03*
D20*
G36*
X183290000Y-119110000D02*
X104710000Y-119110000D01*
X104710000Y-111060000D01*
X115532560Y-111060000D01*
X115532560Y-113060000D01*
X115576838Y-113295317D01*
X115715910Y-113511441D01*
X115928110Y-113656431D01*
X116180000Y-113707440D01*
X117880000Y-113707440D01*
X118115317Y-113663162D01*
X118331441Y-113524090D01*
X118476431Y-113311890D01*
X118527440Y-113060000D01*
X118527440Y-111100000D01*
X125332560Y-111100000D01*
X125332560Y-113100000D01*
X125376838Y-113335317D01*
X125515910Y-113551441D01*
X125728110Y-113696431D01*
X125980000Y-113747440D01*
X127680000Y-113747440D01*
X127915317Y-113703162D01*
X128131441Y-113564090D01*
X128276431Y-113351890D01*
X128327440Y-113100000D01*
X128327440Y-111100000D01*
X128301098Y-110960000D01*
X135492560Y-110960000D01*
X135492560Y-112960000D01*
X135536838Y-113195317D01*
X135675910Y-113411441D01*
X135888110Y-113556431D01*
X136140000Y-113607440D01*
X137840000Y-113607440D01*
X138075317Y-113563162D01*
X138291441Y-113424090D01*
X138436431Y-113211890D01*
X138487440Y-112960000D01*
X138487440Y-110960000D01*
X138443162Y-110724683D01*
X138304090Y-110508559D01*
X138091890Y-110363569D01*
X137840000Y-110312560D01*
X136140000Y-110312560D01*
X135904683Y-110356838D01*
X135688559Y-110495910D01*
X135543569Y-110708110D01*
X135492560Y-110960000D01*
X128301098Y-110960000D01*
X128283162Y-110864683D01*
X128144090Y-110648559D01*
X127931890Y-110503569D01*
X127680000Y-110452560D01*
X125980000Y-110452560D01*
X125744683Y-110496838D01*
X125528559Y-110635910D01*
X125383569Y-110848110D01*
X125332560Y-111100000D01*
X118527440Y-111100000D01*
X118527440Y-111060000D01*
X118483162Y-110824683D01*
X118344090Y-110608559D01*
X118131890Y-110463569D01*
X117880000Y-110412560D01*
X116180000Y-110412560D01*
X115944683Y-110456838D01*
X115728559Y-110595910D01*
X115583569Y-110808110D01*
X115532560Y-111060000D01*
X104710000Y-111060000D01*
X104710000Y-103455167D01*
X118034838Y-103455167D01*
X118176883Y-103798943D01*
X118439673Y-104062192D01*
X118783201Y-104204838D01*
X119155167Y-104205162D01*
X119498943Y-104063117D01*
X119762192Y-103800327D01*
X119904838Y-103456799D01*
X119905162Y-103084833D01*
X119763117Y-102741057D01*
X119500327Y-102477808D01*
X119156799Y-102335162D01*
X118784833Y-102334838D01*
X118441057Y-102476883D01*
X118177808Y-102739673D01*
X118035162Y-103083201D01*
X118034838Y-103455167D01*
X104710000Y-103455167D01*
X104710000Y-101170000D01*
X141332560Y-101170000D01*
X141332560Y-106170000D01*
X141376838Y-106405317D01*
X141515910Y-106621441D01*
X141728110Y-106766431D01*
X141980000Y-106817440D01*
X146980000Y-106817440D01*
X147215317Y-106773162D01*
X147431441Y-106634090D01*
X147576431Y-106421890D01*
X147627440Y-106170000D01*
X147627440Y-105765167D01*
X154374838Y-105765167D01*
X154516883Y-106108943D01*
X154779673Y-106372192D01*
X155123201Y-106514838D01*
X155495167Y-106515162D01*
X155838943Y-106373117D01*
X156102192Y-106110327D01*
X156244838Y-105766799D01*
X156245162Y-105394833D01*
X156103117Y-105051057D01*
X155840327Y-104787808D01*
X155496799Y-104645162D01*
X155124833Y-104644838D01*
X154781057Y-104786883D01*
X154517808Y-105049673D01*
X154375162Y-105393201D01*
X154374838Y-105765167D01*
X147627440Y-105765167D01*
X147627440Y-103045167D01*
X161154838Y-103045167D01*
X161296883Y-103388943D01*
X161559673Y-103652192D01*
X161903201Y-103794838D01*
X162275167Y-103795162D01*
X162618943Y-103653117D01*
X162882192Y-103390327D01*
X163024838Y-103046799D01*
X163025162Y-102674833D01*
X162883117Y-102331057D01*
X162620327Y-102067808D01*
X162276799Y-101925162D01*
X161904833Y-101924838D01*
X161561057Y-102066883D01*
X161297808Y-102329673D01*
X161155162Y-102673201D01*
X161154838Y-103045167D01*
X147627440Y-103045167D01*
X147627440Y-101170000D01*
X147583162Y-100934683D01*
X147444090Y-100718559D01*
X147231890Y-100573569D01*
X146980000Y-100522560D01*
X141980000Y-100522560D01*
X141744683Y-100566838D01*
X141528559Y-100705910D01*
X141383569Y-100918110D01*
X141332560Y-101170000D01*
X104710000Y-101170000D01*
X104710000Y-90265167D01*
X124994838Y-90265167D01*
X125136883Y-90608943D01*
X125399673Y-90872192D01*
X125743201Y-91014838D01*
X126115167Y-91015162D01*
X126458943Y-90873117D01*
X126722192Y-90610327D01*
X126864838Y-90266799D01*
X126865162Y-89894833D01*
X126723117Y-89551057D01*
X126460327Y-89287808D01*
X126116799Y-89145162D01*
X125744833Y-89144838D01*
X125401057Y-89286883D01*
X125137808Y-89549673D01*
X124995162Y-89893201D01*
X124994838Y-90265167D01*
X104710000Y-90265167D01*
X104710000Y-83940000D01*
X154902560Y-83940000D01*
X154902560Y-86340000D01*
X154946838Y-86575317D01*
X155085910Y-86791441D01*
X155298110Y-86936431D01*
X155550000Y-86987440D01*
X157950000Y-86987440D01*
X158185317Y-86943162D01*
X158401441Y-86804090D01*
X158546431Y-86591890D01*
X158597440Y-86340000D01*
X158597440Y-83940000D01*
X158580506Y-83850000D01*
X168362560Y-83850000D01*
X168362560Y-86250000D01*
X168406838Y-86485317D01*
X168545910Y-86701441D01*
X168758110Y-86846431D01*
X169010000Y-86897440D01*
X171410000Y-86897440D01*
X171645317Y-86853162D01*
X171861441Y-86714090D01*
X172006431Y-86501890D01*
X172057440Y-86250000D01*
X172057440Y-83850000D01*
X172013162Y-83614683D01*
X171874090Y-83398559D01*
X171661890Y-83253569D01*
X171410000Y-83202560D01*
X169010000Y-83202560D01*
X168774683Y-83246838D01*
X168558559Y-83385910D01*
X168413569Y-83598110D01*
X168362560Y-83850000D01*
X158580506Y-83850000D01*
X158553162Y-83704683D01*
X158414090Y-83488559D01*
X158201890Y-83343569D01*
X157950000Y-83292560D01*
X155550000Y-83292560D01*
X155314683Y-83336838D01*
X155098559Y-83475910D01*
X154953569Y-83688110D01*
X154902560Y-83940000D01*
X104710000Y-83940000D01*
X104710000Y-80120000D01*
X116112560Y-80120000D01*
X116112560Y-82520000D01*
X116156838Y-82755317D01*
X116295910Y-82971441D01*
X116508110Y-83116431D01*
X116760000Y-83167440D01*
X119160000Y-83167440D01*
X119395317Y-83123162D01*
X119611441Y-82984090D01*
X119756431Y-82771890D01*
X119807440Y-82520000D01*
X119807440Y-80120000D01*
X119779216Y-79970000D01*
X129782560Y-79970000D01*
X129782560Y-82370000D01*
X129826838Y-82605317D01*
X129965910Y-82821441D01*
X130178110Y-82966431D01*
X130430000Y-83017440D01*
X132830000Y-83017440D01*
X133065317Y-82973162D01*
X133281441Y-82834090D01*
X133426431Y-82621890D01*
X133477440Y-82370000D01*
X133477440Y-79970000D01*
X133433162Y-79734683D01*
X133294090Y-79518559D01*
X133081890Y-79373569D01*
X132830000Y-79322560D01*
X130430000Y-79322560D01*
X130194683Y-79366838D01*
X129978559Y-79505910D01*
X129833569Y-79718110D01*
X129782560Y-79970000D01*
X119779216Y-79970000D01*
X119763162Y-79884683D01*
X119624090Y-79668559D01*
X119411890Y-79523569D01*
X119160000Y-79472560D01*
X116760000Y-79472560D01*
X116524683Y-79516838D01*
X116308559Y-79655910D01*
X116163569Y-79868110D01*
X116112560Y-80120000D01*
X104710000Y-80120000D01*
X104710000Y-77074801D01*
X113625182Y-77074801D01*
X113668526Y-77321049D01*
X113805017Y-77532962D01*
X114013200Y-77675077D01*
X114260272Y-77725000D01*
X137630272Y-77715000D01*
X137863144Y-77670651D01*
X138074572Y-77533410D01*
X138215948Y-77324725D01*
X138264995Y-77077477D01*
X138258371Y-75410000D01*
X139812560Y-75410000D01*
X139812560Y-77810000D01*
X139856838Y-78045317D01*
X139995910Y-78261441D01*
X140208110Y-78406431D01*
X140460000Y-78457440D01*
X142860000Y-78457440D01*
X143095317Y-78413162D01*
X143311441Y-78274090D01*
X143456431Y-78061890D01*
X143507440Y-77810000D01*
X143507440Y-75410000D01*
X143463162Y-75174683D01*
X143324090Y-74958559D01*
X143111890Y-74813569D01*
X142860000Y-74762560D01*
X140460000Y-74762560D01*
X140224683Y-74806838D01*
X140008559Y-74945910D01*
X139863569Y-75158110D01*
X139812560Y-75410000D01*
X138258371Y-75410000D01*
X138205851Y-62190000D01*
X139662560Y-62190000D01*
X139662560Y-64590000D01*
X139706838Y-64825317D01*
X139845910Y-65041441D01*
X140058110Y-65186431D01*
X140310000Y-65237440D01*
X142710000Y-65237440D01*
X142945317Y-65193162D01*
X143161441Y-65054090D01*
X143306431Y-64841890D01*
X143357440Y-64590000D01*
X143357440Y-62190000D01*
X143313162Y-61954683D01*
X143174090Y-61738559D01*
X142961890Y-61593569D01*
X142710000Y-61542560D01*
X140310000Y-61542560D01*
X140074683Y-61586838D01*
X139858559Y-61725910D01*
X139713569Y-61938110D01*
X139662560Y-62190000D01*
X138205851Y-62190000D01*
X138194995Y-59457477D01*
X138150159Y-59225613D01*
X138012473Y-59014474D01*
X137803490Y-58873538D01*
X137709849Y-58855167D01*
X168034838Y-58855167D01*
X168176883Y-59198943D01*
X168439673Y-59462192D01*
X168783201Y-59604838D01*
X169155167Y-59605162D01*
X169498943Y-59463117D01*
X169762192Y-59200327D01*
X169904838Y-58856799D01*
X169905162Y-58484833D01*
X169763117Y-58141057D01*
X169500327Y-57877808D01*
X169156799Y-57735162D01*
X168784833Y-57734838D01*
X168441057Y-57876883D01*
X168177808Y-58139673D01*
X168035162Y-58483201D01*
X168034838Y-58855167D01*
X137709849Y-58855167D01*
X137556140Y-58825012D01*
X130976140Y-58865012D01*
X130674220Y-58943472D01*
X130481790Y-59106284D01*
X130367865Y-59331135D01*
X130287865Y-59621135D01*
X130265043Y-59797426D01*
X130317362Y-64270740D01*
X114573936Y-63925153D01*
X114343430Y-63963072D01*
X114128255Y-64094360D01*
X113981110Y-64299019D01*
X113925182Y-64544801D01*
X113625182Y-77074801D01*
X104710000Y-77074801D01*
X104710000Y-57925167D01*
X165264838Y-57925167D01*
X165406883Y-58268943D01*
X165669673Y-58532192D01*
X166013201Y-58674838D01*
X166385167Y-58675162D01*
X166728943Y-58533117D01*
X166992192Y-58270327D01*
X167134838Y-57926799D01*
X167135162Y-57554833D01*
X166993117Y-57211057D01*
X166730327Y-56947808D01*
X166386799Y-56805162D01*
X166014833Y-56804838D01*
X165671057Y-56946883D01*
X165407808Y-57209673D01*
X165265162Y-57553201D01*
X165264838Y-57925167D01*
X104710000Y-57925167D01*
X104710000Y-50595167D01*
X119474838Y-50595167D01*
X119616883Y-50938943D01*
X119879673Y-51202192D01*
X120223201Y-51344838D01*
X120595167Y-51345162D01*
X120938943Y-51203117D01*
X121002170Y-51140000D01*
X129052560Y-51140000D01*
X129052560Y-53540000D01*
X129096838Y-53775317D01*
X129235910Y-53991441D01*
X129448110Y-54136431D01*
X129700000Y-54187440D01*
X132100000Y-54187440D01*
X132335317Y-54143162D01*
X132551441Y-54004090D01*
X132696431Y-53791890D01*
X132747440Y-53540000D01*
X132747440Y-51330000D01*
X142262560Y-51330000D01*
X142262560Y-53730000D01*
X142306838Y-53965317D01*
X142445910Y-54181441D01*
X142658110Y-54326431D01*
X142910000Y-54377440D01*
X145310000Y-54377440D01*
X145545317Y-54333162D01*
X145761441Y-54194090D01*
X145906431Y-53981890D01*
X145957440Y-53730000D01*
X145957440Y-51330000D01*
X145946151Y-51270000D01*
X155482560Y-51270000D01*
X155482560Y-53670000D01*
X155526838Y-53905317D01*
X155665910Y-54121441D01*
X155878110Y-54266431D01*
X156130000Y-54317440D01*
X158530000Y-54317440D01*
X158765317Y-54273162D01*
X158981441Y-54134090D01*
X159126431Y-53921890D01*
X159177440Y-53670000D01*
X159177440Y-51270000D01*
X159133162Y-51034683D01*
X158994090Y-50818559D01*
X158781890Y-50673569D01*
X158530000Y-50622560D01*
X156130000Y-50622560D01*
X155894683Y-50666838D01*
X155678559Y-50805910D01*
X155533569Y-51018110D01*
X155482560Y-51270000D01*
X145946151Y-51270000D01*
X145913162Y-51094683D01*
X145774090Y-50878559D01*
X145561890Y-50733569D01*
X145310000Y-50682560D01*
X142910000Y-50682560D01*
X142674683Y-50726838D01*
X142458559Y-50865910D01*
X142313569Y-51078110D01*
X142262560Y-51330000D01*
X132747440Y-51330000D01*
X132747440Y-51140000D01*
X132703162Y-50904683D01*
X132564090Y-50688559D01*
X132351890Y-50543569D01*
X132100000Y-50492560D01*
X129700000Y-50492560D01*
X129464683Y-50536838D01*
X129248559Y-50675910D01*
X129103569Y-50888110D01*
X129052560Y-51140000D01*
X121002170Y-51140000D01*
X121202192Y-50940327D01*
X121344838Y-50596799D01*
X121345162Y-50224833D01*
X121203117Y-49881057D01*
X120940327Y-49617808D01*
X120596799Y-49475162D01*
X120224833Y-49474838D01*
X119881057Y-49616883D01*
X119617808Y-49879673D01*
X119475162Y-50223201D01*
X119474838Y-50595167D01*
X104710000Y-50595167D01*
X104710000Y-43830000D01*
X183290000Y-43830000D01*
X183290000Y-119110000D01*
X183290000Y-119110000D01*
G37*
X183290000Y-119110000D02*
X104710000Y-119110000D01*
X104710000Y-111060000D01*
X115532560Y-111060000D01*
X115532560Y-113060000D01*
X115576838Y-113295317D01*
X115715910Y-113511441D01*
X115928110Y-113656431D01*
X116180000Y-113707440D01*
X117880000Y-113707440D01*
X118115317Y-113663162D01*
X118331441Y-113524090D01*
X118476431Y-113311890D01*
X118527440Y-113060000D01*
X118527440Y-111100000D01*
X125332560Y-111100000D01*
X125332560Y-113100000D01*
X125376838Y-113335317D01*
X125515910Y-113551441D01*
X125728110Y-113696431D01*
X125980000Y-113747440D01*
X127680000Y-113747440D01*
X127915317Y-113703162D01*
X128131441Y-113564090D01*
X128276431Y-113351890D01*
X128327440Y-113100000D01*
X128327440Y-111100000D01*
X128301098Y-110960000D01*
X135492560Y-110960000D01*
X135492560Y-112960000D01*
X135536838Y-113195317D01*
X135675910Y-113411441D01*
X135888110Y-113556431D01*
X136140000Y-113607440D01*
X137840000Y-113607440D01*
X138075317Y-113563162D01*
X138291441Y-113424090D01*
X138436431Y-113211890D01*
X138487440Y-112960000D01*
X138487440Y-110960000D01*
X138443162Y-110724683D01*
X138304090Y-110508559D01*
X138091890Y-110363569D01*
X137840000Y-110312560D01*
X136140000Y-110312560D01*
X135904683Y-110356838D01*
X135688559Y-110495910D01*
X135543569Y-110708110D01*
X135492560Y-110960000D01*
X128301098Y-110960000D01*
X128283162Y-110864683D01*
X128144090Y-110648559D01*
X127931890Y-110503569D01*
X127680000Y-110452560D01*
X125980000Y-110452560D01*
X125744683Y-110496838D01*
X125528559Y-110635910D01*
X125383569Y-110848110D01*
X125332560Y-111100000D01*
X118527440Y-111100000D01*
X118527440Y-111060000D01*
X118483162Y-110824683D01*
X118344090Y-110608559D01*
X118131890Y-110463569D01*
X117880000Y-110412560D01*
X116180000Y-110412560D01*
X115944683Y-110456838D01*
X115728559Y-110595910D01*
X115583569Y-110808110D01*
X115532560Y-111060000D01*
X104710000Y-111060000D01*
X104710000Y-103455167D01*
X118034838Y-103455167D01*
X118176883Y-103798943D01*
X118439673Y-104062192D01*
X118783201Y-104204838D01*
X119155167Y-104205162D01*
X119498943Y-104063117D01*
X119762192Y-103800327D01*
X119904838Y-103456799D01*
X119905162Y-103084833D01*
X119763117Y-102741057D01*
X119500327Y-102477808D01*
X119156799Y-102335162D01*
X118784833Y-102334838D01*
X118441057Y-102476883D01*
X118177808Y-102739673D01*
X118035162Y-103083201D01*
X118034838Y-103455167D01*
X104710000Y-103455167D01*
X104710000Y-101170000D01*
X141332560Y-101170000D01*
X141332560Y-106170000D01*
X141376838Y-106405317D01*
X141515910Y-106621441D01*
X141728110Y-106766431D01*
X141980000Y-106817440D01*
X146980000Y-106817440D01*
X147215317Y-106773162D01*
X147431441Y-106634090D01*
X147576431Y-106421890D01*
X147627440Y-106170000D01*
X147627440Y-105765167D01*
X154374838Y-105765167D01*
X154516883Y-106108943D01*
X154779673Y-106372192D01*
X155123201Y-106514838D01*
X155495167Y-106515162D01*
X155838943Y-106373117D01*
X156102192Y-106110327D01*
X156244838Y-105766799D01*
X156245162Y-105394833D01*
X156103117Y-105051057D01*
X155840327Y-104787808D01*
X155496799Y-104645162D01*
X155124833Y-104644838D01*
X154781057Y-104786883D01*
X154517808Y-105049673D01*
X154375162Y-105393201D01*
X154374838Y-105765167D01*
X147627440Y-105765167D01*
X147627440Y-103045167D01*
X161154838Y-103045167D01*
X161296883Y-103388943D01*
X161559673Y-103652192D01*
X161903201Y-103794838D01*
X162275167Y-103795162D01*
X162618943Y-103653117D01*
X162882192Y-103390327D01*
X163024838Y-103046799D01*
X163025162Y-102674833D01*
X162883117Y-102331057D01*
X162620327Y-102067808D01*
X162276799Y-101925162D01*
X161904833Y-101924838D01*
X161561057Y-102066883D01*
X161297808Y-102329673D01*
X161155162Y-102673201D01*
X161154838Y-103045167D01*
X147627440Y-103045167D01*
X147627440Y-101170000D01*
X147583162Y-100934683D01*
X147444090Y-100718559D01*
X147231890Y-100573569D01*
X146980000Y-100522560D01*
X141980000Y-100522560D01*
X141744683Y-100566838D01*
X141528559Y-100705910D01*
X141383569Y-100918110D01*
X141332560Y-101170000D01*
X104710000Y-101170000D01*
X104710000Y-90265167D01*
X124994838Y-90265167D01*
X125136883Y-90608943D01*
X125399673Y-90872192D01*
X125743201Y-91014838D01*
X126115167Y-91015162D01*
X126458943Y-90873117D01*
X126722192Y-90610327D01*
X126864838Y-90266799D01*
X126865162Y-89894833D01*
X126723117Y-89551057D01*
X126460327Y-89287808D01*
X126116799Y-89145162D01*
X125744833Y-89144838D01*
X125401057Y-89286883D01*
X125137808Y-89549673D01*
X124995162Y-89893201D01*
X124994838Y-90265167D01*
X104710000Y-90265167D01*
X104710000Y-83940000D01*
X154902560Y-83940000D01*
X154902560Y-86340000D01*
X154946838Y-86575317D01*
X155085910Y-86791441D01*
X155298110Y-86936431D01*
X155550000Y-86987440D01*
X157950000Y-86987440D01*
X158185317Y-86943162D01*
X158401441Y-86804090D01*
X158546431Y-86591890D01*
X158597440Y-86340000D01*
X158597440Y-83940000D01*
X158580506Y-83850000D01*
X168362560Y-83850000D01*
X168362560Y-86250000D01*
X168406838Y-86485317D01*
X168545910Y-86701441D01*
X168758110Y-86846431D01*
X169010000Y-86897440D01*
X171410000Y-86897440D01*
X171645317Y-86853162D01*
X171861441Y-86714090D01*
X172006431Y-86501890D01*
X172057440Y-86250000D01*
X172057440Y-83850000D01*
X172013162Y-83614683D01*
X171874090Y-83398559D01*
X171661890Y-83253569D01*
X171410000Y-83202560D01*
X169010000Y-83202560D01*
X168774683Y-83246838D01*
X168558559Y-83385910D01*
X168413569Y-83598110D01*
X168362560Y-83850000D01*
X158580506Y-83850000D01*
X158553162Y-83704683D01*
X158414090Y-83488559D01*
X158201890Y-83343569D01*
X157950000Y-83292560D01*
X155550000Y-83292560D01*
X155314683Y-83336838D01*
X155098559Y-83475910D01*
X154953569Y-83688110D01*
X154902560Y-83940000D01*
X104710000Y-83940000D01*
X104710000Y-80120000D01*
X116112560Y-80120000D01*
X116112560Y-82520000D01*
X116156838Y-82755317D01*
X116295910Y-82971441D01*
X116508110Y-83116431D01*
X116760000Y-83167440D01*
X119160000Y-83167440D01*
X119395317Y-83123162D01*
X119611441Y-82984090D01*
X119756431Y-82771890D01*
X119807440Y-82520000D01*
X119807440Y-80120000D01*
X119779216Y-79970000D01*
X129782560Y-79970000D01*
X129782560Y-82370000D01*
X129826838Y-82605317D01*
X129965910Y-82821441D01*
X130178110Y-82966431D01*
X130430000Y-83017440D01*
X132830000Y-83017440D01*
X133065317Y-82973162D01*
X133281441Y-82834090D01*
X133426431Y-82621890D01*
X133477440Y-82370000D01*
X133477440Y-79970000D01*
X133433162Y-79734683D01*
X133294090Y-79518559D01*
X133081890Y-79373569D01*
X132830000Y-79322560D01*
X130430000Y-79322560D01*
X130194683Y-79366838D01*
X129978559Y-79505910D01*
X129833569Y-79718110D01*
X129782560Y-79970000D01*
X119779216Y-79970000D01*
X119763162Y-79884683D01*
X119624090Y-79668559D01*
X119411890Y-79523569D01*
X119160000Y-79472560D01*
X116760000Y-79472560D01*
X116524683Y-79516838D01*
X116308559Y-79655910D01*
X116163569Y-79868110D01*
X116112560Y-80120000D01*
X104710000Y-80120000D01*
X104710000Y-77074801D01*
X113625182Y-77074801D01*
X113668526Y-77321049D01*
X113805017Y-77532962D01*
X114013200Y-77675077D01*
X114260272Y-77725000D01*
X137630272Y-77715000D01*
X137863144Y-77670651D01*
X138074572Y-77533410D01*
X138215948Y-77324725D01*
X138264995Y-77077477D01*
X138258371Y-75410000D01*
X139812560Y-75410000D01*
X139812560Y-77810000D01*
X139856838Y-78045317D01*
X139995910Y-78261441D01*
X140208110Y-78406431D01*
X140460000Y-78457440D01*
X142860000Y-78457440D01*
X143095317Y-78413162D01*
X143311441Y-78274090D01*
X143456431Y-78061890D01*
X143507440Y-77810000D01*
X143507440Y-75410000D01*
X143463162Y-75174683D01*
X143324090Y-74958559D01*
X143111890Y-74813569D01*
X142860000Y-74762560D01*
X140460000Y-74762560D01*
X140224683Y-74806838D01*
X140008559Y-74945910D01*
X139863569Y-75158110D01*
X139812560Y-75410000D01*
X138258371Y-75410000D01*
X138205851Y-62190000D01*
X139662560Y-62190000D01*
X139662560Y-64590000D01*
X139706838Y-64825317D01*
X139845910Y-65041441D01*
X140058110Y-65186431D01*
X140310000Y-65237440D01*
X142710000Y-65237440D01*
X142945317Y-65193162D01*
X143161441Y-65054090D01*
X143306431Y-64841890D01*
X143357440Y-64590000D01*
X143357440Y-62190000D01*
X143313162Y-61954683D01*
X143174090Y-61738559D01*
X142961890Y-61593569D01*
X142710000Y-61542560D01*
X140310000Y-61542560D01*
X140074683Y-61586838D01*
X139858559Y-61725910D01*
X139713569Y-61938110D01*
X139662560Y-62190000D01*
X138205851Y-62190000D01*
X138194995Y-59457477D01*
X138150159Y-59225613D01*
X138012473Y-59014474D01*
X137803490Y-58873538D01*
X137709849Y-58855167D01*
X168034838Y-58855167D01*
X168176883Y-59198943D01*
X168439673Y-59462192D01*
X168783201Y-59604838D01*
X169155167Y-59605162D01*
X169498943Y-59463117D01*
X169762192Y-59200327D01*
X169904838Y-58856799D01*
X169905162Y-58484833D01*
X169763117Y-58141057D01*
X169500327Y-57877808D01*
X169156799Y-57735162D01*
X168784833Y-57734838D01*
X168441057Y-57876883D01*
X168177808Y-58139673D01*
X168035162Y-58483201D01*
X168034838Y-58855167D01*
X137709849Y-58855167D01*
X137556140Y-58825012D01*
X130976140Y-58865012D01*
X130674220Y-58943472D01*
X130481790Y-59106284D01*
X130367865Y-59331135D01*
X130287865Y-59621135D01*
X130265043Y-59797426D01*
X130317362Y-64270740D01*
X114573936Y-63925153D01*
X114343430Y-63963072D01*
X114128255Y-64094360D01*
X113981110Y-64299019D01*
X113925182Y-64544801D01*
X113625182Y-77074801D01*
X104710000Y-77074801D01*
X104710000Y-57925167D01*
X165264838Y-57925167D01*
X165406883Y-58268943D01*
X165669673Y-58532192D01*
X166013201Y-58674838D01*
X166385167Y-58675162D01*
X166728943Y-58533117D01*
X166992192Y-58270327D01*
X167134838Y-57926799D01*
X167135162Y-57554833D01*
X166993117Y-57211057D01*
X166730327Y-56947808D01*
X166386799Y-56805162D01*
X166014833Y-56804838D01*
X165671057Y-56946883D01*
X165407808Y-57209673D01*
X165265162Y-57553201D01*
X165264838Y-57925167D01*
X104710000Y-57925167D01*
X104710000Y-50595167D01*
X119474838Y-50595167D01*
X119616883Y-50938943D01*
X119879673Y-51202192D01*
X120223201Y-51344838D01*
X120595167Y-51345162D01*
X120938943Y-51203117D01*
X121002170Y-51140000D01*
X129052560Y-51140000D01*
X129052560Y-53540000D01*
X129096838Y-53775317D01*
X129235910Y-53991441D01*
X129448110Y-54136431D01*
X129700000Y-54187440D01*
X132100000Y-54187440D01*
X132335317Y-54143162D01*
X132551441Y-54004090D01*
X132696431Y-53791890D01*
X132747440Y-53540000D01*
X132747440Y-51330000D01*
X142262560Y-51330000D01*
X142262560Y-53730000D01*
X142306838Y-53965317D01*
X142445910Y-54181441D01*
X142658110Y-54326431D01*
X142910000Y-54377440D01*
X145310000Y-54377440D01*
X145545317Y-54333162D01*
X145761441Y-54194090D01*
X145906431Y-53981890D01*
X145957440Y-53730000D01*
X145957440Y-51330000D01*
X145946151Y-51270000D01*
X155482560Y-51270000D01*
X155482560Y-53670000D01*
X155526838Y-53905317D01*
X155665910Y-54121441D01*
X155878110Y-54266431D01*
X156130000Y-54317440D01*
X158530000Y-54317440D01*
X158765317Y-54273162D01*
X158981441Y-54134090D01*
X159126431Y-53921890D01*
X159177440Y-53670000D01*
X159177440Y-51270000D01*
X159133162Y-51034683D01*
X158994090Y-50818559D01*
X158781890Y-50673569D01*
X158530000Y-50622560D01*
X156130000Y-50622560D01*
X155894683Y-50666838D01*
X155678559Y-50805910D01*
X155533569Y-51018110D01*
X155482560Y-51270000D01*
X145946151Y-51270000D01*
X145913162Y-51094683D01*
X145774090Y-50878559D01*
X145561890Y-50733569D01*
X145310000Y-50682560D01*
X142910000Y-50682560D01*
X142674683Y-50726838D01*
X142458559Y-50865910D01*
X142313569Y-51078110D01*
X142262560Y-51330000D01*
X132747440Y-51330000D01*
X132747440Y-51140000D01*
X132703162Y-50904683D01*
X132564090Y-50688559D01*
X132351890Y-50543569D01*
X132100000Y-50492560D01*
X129700000Y-50492560D01*
X129464683Y-50536838D01*
X129248559Y-50675910D01*
X129103569Y-50888110D01*
X129052560Y-51140000D01*
X121002170Y-51140000D01*
X121202192Y-50940327D01*
X121344838Y-50596799D01*
X121345162Y-50224833D01*
X121203117Y-49881057D01*
X120940327Y-49617808D01*
X120596799Y-49475162D01*
X120224833Y-49474838D01*
X119881057Y-49616883D01*
X119617808Y-49879673D01*
X119475162Y-50223201D01*
X119474838Y-50595167D01*
X104710000Y-50595167D01*
X104710000Y-43830000D01*
X183290000Y-43830000D01*
X183290000Y-119110000D01*
G36*
X137502495Y-76953055D02*
X114390079Y-76962944D01*
X114683930Y-64689751D01*
X130957213Y-65046969D01*
X131006831Y-65038050D01*
X131049069Y-65010530D01*
X131077273Y-64968744D01*
X131086991Y-64918515D01*
X131027201Y-59806467D01*
X131076871Y-59626414D01*
X137433507Y-59587772D01*
X137502495Y-76953055D01*
X137502495Y-76953055D01*
G37*
X137502495Y-76953055D02*
X114390079Y-76962944D01*
X114683930Y-64689751D01*
X130957213Y-65046969D01*
X131006831Y-65038050D01*
X131049069Y-65010530D01*
X131077273Y-64968744D01*
X131086991Y-64918515D01*
X131027201Y-59806467D01*
X131076871Y-59626414D01*
X137433507Y-59587772D01*
X137502495Y-76953055D01*
M02*
