M48
;DRILL file {KiCad 4.0.7} date 04/08/18 16:15:22
;FORMAT={-:-/ absolute / inch / decimal}
FMAT,2
INCH,TZ
T1C0.012
T2C0.016
T3C0.039
T4C0.047
T5C0.118
%
G90
G05
M72
T1
X4.4417Y-1.8307
X4.5098Y-2.0736
X4.5193Y-1.9173
X4.589Y-4.085
X4.5921Y-4.1902
X4.7051Y-4.3024
X4.7787Y-4.3079
X4.8122Y-4.1276
X4.8146Y-4.1882
X4.8594Y-4.1248
X4.8606Y-4.1906
X4.9602Y-4.1602
X4.9819Y-4.2886
X5.0201Y-4.111
X5.135Y-4.1839
X5.2122Y-4.2449
X5.2165Y-4.3232
X5.328Y-3.865
X5.3327Y-3.7193
X5.4941Y-3.8646
X5.5008Y-3.7209
X5.8063Y-4.3575
X5.811Y-4.4063
X6.0406Y-4.2976
X6.0425Y-4.211
X6.2453Y-4.3598
X6.2504Y-4.4157
X6.265Y-4.2161
X6.302Y-4.2992
X6.4421Y-4.1756
X6.4429Y-4.2492
X6.4957Y-4.2476
X6.5Y-4.1764
X6.6012Y-4.2417
X6.6705Y-4.3614
X6.6709Y-4.4197
X6.7067Y-4.0913
X6.713Y-4.185
X6.8276Y-2.339
X6.8323Y-2.1752
X6.9358Y-3.5177
T2
X4.6839Y-4.0657
X4.7406Y-1.9846
X4.8272Y-3.937
X4.9579Y-3.5465
X6.1146Y-4.1567
X6.3256Y-3.6201
X6.3815Y-4.0496
X6.5433Y-2.2732
X6.6524Y-2.3098
X6.8843Y-4.0327
X6.9331Y-4.0327
T3
X4.5091Y-4.4118
X4.6075Y-4.4118
X4.8949Y-4.4134
X4.9933Y-4.4134
X5.2949Y-4.4079
X5.3933Y-4.4079
T4
X4.6441Y-3.2016
X4.6441Y-3.3984
X5.1535Y-1.8638
X5.1535Y-2.0606
X5.1823Y-3.1957
X5.1823Y-3.3925
X5.5713Y-2.4957
X5.5772Y-3.0161
X5.6736Y-1.8713
X5.6736Y-2.0681
X5.7681Y-2.4957
X5.774Y-3.0161
X6.1713Y-3.1551
X6.1713Y-3.352
X6.1941Y-1.8689
X6.1941Y-2.0657
X6.7012Y-3.1516
X6.7012Y-3.3484
T5
X4.2346Y-4.5669
X4.2528Y-1.8571
X4.6313Y-2.6719
X4.6329Y-2.9073
X4.8484Y-2.6725
X4.8494Y-2.9069
X5.0652Y-2.6723
X5.0657Y-2.9069
X5.2818Y-2.6727
X5.2819Y-2.4575
X5.2822Y-2.9073
X5.6882Y-4.0815
X5.6929Y-3.8217
X6.0831Y-2.4307
X6.0878Y-2.6535
X6.0878Y-2.878
X6.3161Y-2.8772
X6.3169Y-2.652
X6.5339Y-2.8795
X6.539Y-2.6531
X6.7559Y-2.8783
X6.765Y-2.6512
X7.0484Y-4.472
X7.0732Y-2.3665
T0
M30
